# xmcd
#
# Track frame offsets:
#	182
#	11907
#	24477
#	38092
#	49510
#	62712
#	73412
#	86957
#	100492
#	111992
#	129402
#	142292
#	157807
#	175352
#	196125
#	213390
#	228640
#	240572
#	260700
#	292125
#
# Disc length: 4341
#
# Revision: 4
# Processed by: cddbd v1.5.1PL0 Copyright (c) Steve Scherf et al.
# Submitted via: CDex 1.40Beta8
# Normalized: r3:DSETVAR1,TDELIM( - )
#
DISCID=3610f314
DTITLE=Various Artist - Clasic Soul 2 CD2
DYEAR=1900
DGENRE=Soul
TTITLE0=Otis Redding - Mr Pitiful
TTITLE1=Aretha Franklin - Chain of Fools
TTITLE2=The Four tops - Bernadette
TTITLE3=Otis And Carla - Lovey Dovey
TTITLE4=Clarence Carter - The Road Of Love
TTITLE5=Authur Conley - Funky Street
TTITLE6=Eddie Floyd - Big Bird
TTITLE7=Wilson Pickett - Mini-Skirt Minnie
TTITLE8=Rufus Thomas - Memphis train
TTITLE9=Brook Benton - Rainy Night In Georgia
TTITLE10=James Brown - Get Up
TTITLE11=Edwin Starr - War
TTITLE12=Charles Wright - Express Yourself
TTITLE13=Isaac Hayes - Theme From Shaft
TTITLE14=Marvin Gaye - Whats Goin On
TTITLE15=Michael Jackson - Got To Be There
TTITLE16=Jean Knight - Mr Big Stuff
TTITLE17=Stevie Wonder - Superstition
TTITLE18=The Temptations - Papa Was A Rolling Stone
TTITLE19=Stevie Wonder - Living For The City
EXTD=ID3G: 42
EXTT0=
EXTT1=
EXTT2=
EXTT3=
EXTT4=
EXTT5=
EXTT6=
EXTT7=
EXTT8=
EXTT9=
EXTT10=
EXTT11=
EXTT12=
EXTT13=
EXTT14=
EXTT15=
EXTT16=
EXTT17=
EXTT18=
EXTT19=
PLAYORDER=
